<svg xmlns="http://www.w3.org/2000/svg" width="134" height="80" viewBox="0 0 134 80">
  <g id="Group_11" data-name="Group 11" transform="translate(-709 -200)">
    <text id="HOLIDAZE" transform="translate(727 261)" fill="#e6b022" font-size="21" font-family="Montserrat-Bold, Montserrat" font-weight="700"><tspan x="0" y="0">HOLIDAZE</tspan></text>
    <g id="Group_9" data-name="Group 9" transform="translate(146 -7.079)">
      <g id="Ellipse_11" data-name="Ellipse 11" transform="translate(563 208.079)" fill="none" stroke="#e6b022" stroke-width="1">
        <circle cx="39.5" cy="39.5" r="39.5" stroke="none"/>
        <circle cx="39.5" cy="39.5" r="39" fill="none"/>
      </g>
      <g id="Path_70" data-name="Path 70" transform="translate(563 207.079)" fill="#e6b022">
        <path d="M 78.74238586425781 40.43148422241211 C 78.49737548828125 40.09282302856445 78.19977569580078 39.79206848144531 77.8387451171875 39.57269668579102 C 76.73154449462891 38.90718460083008 73.57270812988281 37.20570755004883 68.1226806640625 35.75638580322266 C 62.69598770141602 34.31327438354492 56.78005599975586 33.58155059814453 50.53921127319336 33.58155059814453 C 43.29014205932617 33.58155059814453 37.21284484863281 35.20659637451172 33.39110946655273 36.56983947753906 C 29.88983726501465 37.81876373291016 27.6320629119873 39.05502319335938 26.95194053649902 39.44771575927734 L 20.67006492614746 37.08487319946289 L 16.51563262939453 35.5222282409668 L 16.50789833068848 35.51932907104492 L 16.50008773803711 35.51667404174805 C 16.47759819030762 35.50905227661133 14.21642112731934 34.74345016479492 11.22355461120605 33.79327392578125 C 9.056721687316895 33.10506057739258 5.119054794311523 31.89310646057129 3.093199014663696 31.50876235961914 C 3.023043632507324 31.49561882019043 2.952921390533447 31.48906326293945 2.883643627166748 31.48906326293945 C 2.064182758331299 31.48906326293945 1.4509437084198 32.31047058105469 0.9305177927017212 33.78122711181641 C 1.411862134933472 30.55715942382812 2.295432329177856 27.41570854187012 3.574021339416504 24.39277267456055 C 5.544321537017822 19.73447418212891 8.365077018737793 15.55078411102295 11.957932472229 11.95792865753174 C 15.55078792572021 8.365073204040527 19.73447608947754 5.544329166412354 24.39277648925781 3.574028968811035 C 29.2153434753418 1.534262299537659 34.33845520019531 0.5000067949295044 39.61981964111328 0.5000067949295044 C 44.90118789672852 0.5000067949295044 50.02429962158203 1.534262299537659 54.84686660766602 3.574028968811035 C 59.50516510009766 5.544329166412354 63.6888542175293 8.365073204040527 67.28170776367188 11.95792865753174 C 70.87456512451172 15.55078411102295 73.69532012939453 19.73447418212891 75.66561889648438 24.39277267456055 C 77.70539093017578 29.21533966064453 78.73964691162109 34.33845138549805 78.73964691162109 39.61981964111328 C 78.73964691162109 39.90860748291016 78.74062347412109 40.17899703979492 78.74238586425781 40.43148422241211 Z" stroke="none"/>
        <path d="M 39.61981964111328 0.9999961853027344 C 34.40574264526367 0.9999961853027344 29.3481559753418 2.020961761474609 24.58755493164062 4.034519195556641 C 19.98885345458984 5.979606628417969 15.85858917236328 8.764385223388672 12.31148529052734 12.31148529052734 C 8.764389038085938 15.85858535766602 5.979606628417969 19.98885154724121 4.034523010253906 24.58755111694336 C 3.111557006835938 26.76968574523926 2.397071838378906 29.01457595825195 1.893943786621094 31.30797958374023 C 2.190925598144531 31.09736061096191 2.518424987792969 30.98906326293945 2.883644104003906 30.98906326293945 C 2.983802795410156 30.98906326293945 3.084930419921875 30.99849510192871 3.186386108398438 31.01751708984375 C 5.237922668457031 31.40672874450684 9.197364807128906 32.62511825561523 11.37483978271484 33.31670761108398 C 14.37226867675781 34.26834106445312 16.63804244995117 35.03549575805664 16.66057586669922 35.04312896728516 L 16.69165420532227 35.05424118041992 L 26.90879821777344 38.89729309082031 C 27.79130172729492 38.40272521972656 29.98655700683594 37.25341415405273 33.22312164306641 36.09890747070312 C 37.0820198059082 34.72239685058594 43.21865463256836 33.08155059814453 50.53920745849609 33.08155059814453 C 56.82341003417969 33.08155059814453 62.78257751464844 33.81891632080078 68.25116729736328 35.27317428588867 C 73.76295471191406 36.73891830444336 76.97088623046875 38.46767425537109 78.09837341308594 39.14539337158203 C 78.14549255371094 39.17402648925781 78.19194030761719 39.20392608642578 78.23777770996094 39.23513412475586 C 78.18880462646484 34.15689086914062 77.16913604736328 29.23105430603027 75.20510864257812 24.58755111694336 C 73.26002502441406 19.98885154724121 70.47525787353516 15.85858535766602 66.92815399169922 12.31148529052734 C 63.38105392456055 8.764385223388672 59.25078582763672 5.979606628417969 54.6520881652832 4.034519195556641 C 49.89148712158203 2.020961761474609 44.83390045166016 0.9999961853027344 39.61981964111328 0.9999961853027344 M 39.61981964111328 -3.814697265625e-06 C 61.50124359130859 -3.814697265625e-06 79.23963165283203 17.73839569091797 79.23963165283203 39.61981964111328 C 79.23963165283203 47.45641708374023 79.96296691894531 41.4484977722168 77.5791015625 39.99999618530273 C 74.02461242675781 37.86350631713867 64.58707427978516 34.08155059814453 50.53920745849609 34.08155059814453 C 36.64450836181641 34.08155059814453 27 39.99999618530273 27 39.99999618530273 L 16.339599609375 35.99021911621094 C 16.339599609375 35.99021911621094 14.09512329101562 35.22953796386719 11.07224273681641 34.26982879638672 C 8.396400451660156 33.41995239257812 4.85333251953125 32.35160827636719 3 31.99999618530273 C 1.126235961914062 31.64899063110352 0.17498779296875 39.86416625976562 0.022064208984375 39.86416625976562 C 0.00730133056640625 39.86416625976562 0 39.78781890869141 0 39.61981964111328 C 0 17.73839569091797 17.73839950561523 -3.814697265625e-06 39.61981964111328 -3.814697265625e-06 Z" stroke="none" fill="#e6b022"/>
      </g>
    </g>
  </g>
</svg>
